{
  "accessors": [
    {
      "bufferView": 1,
      "componentType": 5126,
      "count": 272,
      "max": [
        0.23175999522209167,
        0.33201000094413757,
        0.31696999073028564
      ],
      "min": [
        -0.1896899938583374,
        -0.33201000094413757,
        -0.41040000319480896
      ],
      "type": "VEC3"
    },
    {
      "bufferView": 1,
      "byteOffset": 3264,
      "componentType": 5126,
      "count": 272,
      "max": [
        1,
        0.89436918497085571,
        0.44720828533172607
      ],
      "min": [
        -0.91098779439926147,
        -0.89436918497085571,
        -0.7071068286895752
      ],
      "type": "VEC3"
    },
    {
      "bufferView": 0,
      "componentType": 5125,
      "count": 792,
      "max": [
        271
      ],
      "min": [
        0
      ],
      "type": "SCALAR"
    },
    {
      "bufferView": 1,
      "byteOffset": 6528,
      "componentType": 5126,
      "count": 240,
      "max": [
        0.46237000823020935,
        1,
        0.26355999708175659
      ],
      "min": [
        -0.60855001211166382,
        -1,
        -0.28711000084877014
      ],
      "type": "VEC3"
    },
    {
      "bufferView": 1,
      "byteOffset": 9408,
      "componentType": 5126,
      "count": 240,
      "max": [
        1,
        0.89443325996398926,
        1
      ],
      "min": [
        -0.9108201265335083,
        -0.89443325996398926,
        -1
      ],
      "type": "VEC3"
    },
    {
      "bufferView": 0,
      "byteOffset": 3168,
      "componentType": 5125,
      "count": 684,
      "max": [
        239
      ],
      "min": [
        0
      ],
      "type": "SCALAR"
    },
    {
      "bufferView": 1,
      "byteOffset": 12288,
      "componentType": 5126,
      "count": 200,
      "max": [
        0.32291001081466675,
        0.91026997566223145,
        0.29546999931335449
      ],
      "min": [
        -0.26370999217033386,
        -0.91026997566223145,
        -0.25519999861717224
      ],
      "type": "VEC3"
    },
    {
      "bufferView": 1,
      "byteOffset": 14688,
      "componentType": 5126,
      "count": 200,
      "max": [
        0.89443325996398926,
        0.81773757934570312,
        1
      ],
      "min": [
        -1,
        -0.81774753332138062,
        -1
      ],
      "type": "VEC3"
    },
    {
      "bufferView": 0,
      "byteOffset": 5904,
      "componentType": 5125,
      "count": 576,
      "max": [
        199
      ],
      "min": [
        0
      ],
      "type": "SCALAR"
    },
    {
      "bufferView": 1,
      "byteOffset": 17088,
      "componentType": 5126,
      "count": 263,
      "max": [
        0.14864000678062439,
        0.28334000706672668,
        0.39002001285552979
      ],
      "min": [
        -0.17366999387741089,
        -0.28334000706672668,
        -0.1770700067281723
      ],
      "type": "VEC3"
    },
    {
      "bufferView": 1,
      "byteOffset": 20244,
      "componentType": 5126,
      "count": 263,
      "max": [
        0.91098779439926147,
        0.89430850744247437,
        1
      ],
      "min": [
        -0.89443325996398926,
        -0.89430850744247437,
        -0.70716685056686401
      ],
      "type": "VEC3"
    },
    {
      "bufferView": 0,
      "byteOffset": 8208,
      "componentType": 5125,
      "count": 774,
      "max": [
        262
      ],
      "min": [
        0
      ],
      "type": "SCALAR"
    },
    {
      "bufferView": 1,
      "byteOffset": 23400,
      "componentType": 5126,
      "count": 168,
      "max": [
        0.31452998518943787,
        0.75305002927780151,
        0.26148000359535217
      ],
      "min": [
        -0.2775300145149231,
        -0.75305002927780151,
        -0.28918999433517456
      ],
      "type": "VEC3"
    },
    {
      "bufferView": 1,
      "byteOffset": 25416,
      "componentType": 5126,
      "count": 168,
      "max": [
        0.9108201265335083,
        0.73130756616592407,
        1
      ],
      "min": [
        -0.89443325996398926,
        -0.73132610321044922,
        -1
      ],
      "type": "VEC3"
    },
    {
      "bufferView": 0,
      "byteOffset": 11304,
      "componentType": 5125,
      "count": 480,
      "max": [
        167
      ],
      "min": [
        0
      ],
      "type": "SCALAR"
    },
    {
      "bufferView": 1,
      "byteOffset": 27432,
      "componentType": 5126,
      "count": 168,
      "max": [
        0.18352000415325165,
        0.59494000673294067,
        0.29429998993873596
      ],
      "min": [
        -0.12775999307632446,
        -0.59494000673294067,
        -0.16649000346660614
      ],
      "type": "VEC3"
    },
    {
      "bufferView": 1,
      "byteOffset": 29448,
      "componentType": 5126,
      "count": 168,
      "max": [
        0.89443325996398926,
        0.73132610321044922,
        0.7071068286895752
      ],
      "min": [
        -1,
        -0.73130756616592407,
        -1
      ],
      "type": "VEC3"
    },
    {
      "bufferView": 0,
      "byteOffset": 13224,
      "componentType": 5125,
      "count": 480,
      "max": [
        167
      ],
      "min": [
        0
      ],
      "type": "SCALAR"
    },
    {
      "bufferView": 1,
      "byteOffset": 31464,
      "componentType": 5126,
      "count": 98,
      "max": [
        0.11060000211000443,
        0.27079001069068909,
        0.15827000141143799
      ],
      "min": [
        -0.051169998943805695,
        -0.27079001069068909,
        -0.16527999937534332
      ],
      "type": "VEC3"
    },
    {
      "bufferView": 1,
      "byteOffset": 32640,
      "componentType": 5126,
      "count": 98,
      "max": [
        0.89443325996398926,
        0.47853672504425049,
        0.44720527529716492
      ],
      "min": [
        -1,
        -0.47853672504425049,
        -0.7071068286895752
      ],
      "type": "VEC3"
    },
    {
      "bufferView": 0,
      "byteOffset": 15144,
      "componentType": 5125,
      "count": 276,
      "max": [
        97
      ],
      "min": [
        0
      ],
      "type": "SCALAR"
    },
    {
      "bufferView": 1,
      "byteOffset": 33816,
      "componentType": 5126,
      "count": 288,
      "max": [
        0.33116000890731812,
        0.72465997934341431,
        0.53035998344421387
      ],
      "min": [
        -0.49017000198364258,
        -0.72465997934341431,
        -0.35188001394271851
      ],
      "type": "VEC3"
    },
    {
      "bufferView": 1,
      "byteOffset": 37272,
      "componentType": 5126,
      "count": 288,
      "max": [
        1,
        0.89443325996398926,
        0.7071068286895752
      ],
      "min": [
        -0.9108201265335083,
        -0.89443325996398926,
        -1
      ],
      "type": "VEC3"
    },
    {
      "bufferView": 0,
      "byteOffset": 16248,
      "componentType": 5125,
      "count": 828,
      "max": [
        287
      ],
      "min": [
        0
      ],
      "type": "SCALAR"
    },
    {
      "bufferView": 1,
      "byteOffset": 40728,
      "componentType": 5126,
      "count": 264,
      "max": [
        0.27858999371528625,
        0.59877002239227295,
        0.46219998598098755
      ],
      "min": [
        -0.43799999356269836,
        -0.59877002239227295,
        -0.60369002819061279
      ],
      "type": "VEC3"
    },
    {
      "bufferView": 1,
      "byteOffset": 43896,
      "componentType": 5126,
      "count": 264,
      "max": [
        0.9108201265335083,
        0.89420992136001587,
        0.70718181133270264
      ],
      "min": [
        -0.89443325996398926,
        -0.89420992136001587,
        -1
      ],
      "type": "VEC3"
    },
    {
      "bufferView": 0,
      "byteOffset": 19560,
      "componentType": 5125,
      "count": 768,
      "max": [
        263
      ],
      "min": [
        0
      ],
      "type": "SCALAR"
    }
  ],
  "asset": {
    "extras": {
      "author": "smart61 (https://sketchfab.com/smart61)",
      "license": "CC-BY-4.0 (http://creativecommons.org/licenses/by/4.0/)",
      "source": "https://sketchfab.com/3d-models/conics-c9bec27103fe4daa9fb8f5f2d7c2c7c1",
      "title": "Conics"
    },
    "generator": "Sketchfab-6.44.0",
    "version": "2.0"
  },
  "bufferViews": [
    {
      "buffer": 0,
      "byteLength": 22632,
      "byteOffset": 0,
      "name": "floatBufferViews",
      "target": 34963
    },
    {
      "buffer": 0,
      "byteLength": 47064,
      "byteOffset": 22632,
      "byteStride": 12,
      "name": "floatBufferViews",
      "target": 34962
    }
  ],
  "buffers": [
    {
      "byteLength": 69696,
      "uri": "scene.bin"
    }
  ],
  "materials": [
    {
      "doubleSided": true,
      "emissiveFactor": [
        0,
        0,
        0
      ],
      "name": "Material.002",
      "pbrMetallicRoughness": {
        "baseColorFactor": [
          0.00074320352812414642,
          0.62171607943946228,
          0.640000066757203,
          1
        ],
        "metallicFactor": 0,
        "roughnessFactor": 0.59999999999999998
      }
    }
  ],
  "meshes": [
    {
      "name": "Cone.002",
      "primitives": [
        {
          "attributes": {
            "NORMAL": 1,
            "POSITION": 0
          },
          "indices": 2,
          "material": 0,
          "mode": 4
        }
      ]
    },
    {
      "name": "Cone.003",
      "primitives": [
        {
          "attributes": {
            "NORMAL": 4,
            "POSITION": 3
          },
          "indices": 5,
          "material": 0,
          "mode": 4
        }
      ]
    },
    {
      "name": "Cone.004",
      "primitives": [
        {
          "attributes": {
            "NORMAL": 7,
            "POSITION": 6
          },
          "indices": 8,
          "material": 0,
          "mode": 4
        }
      ]
    },
    {
      "name": "Cone.005",
      "primitives": [
        {
          "attributes": {
            "NORMAL": 10,
            "POSITION": 9
          },
          "indices": 11,
          "material": 0,
          "mode": 4
        }
      ]
    },
    {
      "name": "Cone.006",
      "primitives": [
        {
          "attributes": {
            "NORMAL": 13,
            "POSITION": 12
          },
          "indices": 14,
          "material": 0,
          "mode": 4
        }
      ]
    },
    {
      "name": "Cone.007",
      "primitives": [
        {
          "attributes": {
            "NORMAL": 16,
            "POSITION": 15
          },
          "indices": 17,
          "material": 0,
          "mode": 4
        }
      ]
    },
    {
      "name": "Cone.008",
      "primitives": [
        {
          "attributes": {
            "NORMAL": 19,
            "POSITION": 18
          },
          "indices": 20,
          "material": 0,
          "mode": 4
        }
      ]
    },
    {
      "name": "Cone.009",
      "primitives": [
        {
          "attributes": {
            "NORMAL": 22,
            "POSITION": 21
          },
          "indices": 23,
          "material": 0,
          "mode": 4
        }
      ]
    },
    {
      "name": "Cone.010",
      "primitives": [
        {
          "attributes": {
            "NORMAL": 25,
            "POSITION": 24
          },
          "indices": 26,
          "material": 0,
          "mode": 4
        }
      ]
    }
  ],
  "nodes": [
    {
      "children": [
        1
      ],
      "name": "RootNode (gltf orientation matrix)",
      "rotation": [
        -0.70710678118654746,
        -0,
        -0,
        0.70710678118654757
      ]
    },
    {
      "children": [
        2
      ],
      "name": "RootNode (model correction matrix)"
    },
    {
      "children": [
        3,
        5,
        7,
        9,
        11,
        13,
        15,
        17,
        19,
        21,
        23
      ],
      "name": "Root"
    },
    {
      "children": [
        4
      ],
      "matrix": [
        -0.29086000000000006,
        0.95517000000000007,
        -0.05519000000000001,
        0,
        -0.77110000000000001,
        -0.19988000000000003,
        0.60452000000000006,
        0,
        0.56639000000000006,
        0.21839000000000003,
        0.7946700000000001,
        0,
        0,
        -5.0350400000000004,
        2.8776499999999996,
        1
      ],
      "name": "Lamp"
    },
    {
      "name": "Lamp"
    },
    {
      "children": [
        6
      ],
      "matrix": [
        1,
        0,
        0,
        0,
        0,
        1,
        0,
        0,
        0,
        0,
        1,
        0,
        0.22417000000000001,
        0,
        0.70829000000000009,
        1
      ],
      "name": "Cone.002"
    },
    {
      "mesh": 0,
      "name": "Cone.002"
    },
    {
      "children": [
        8
      ],
      "matrix": [
        1,
        0,
        0,
        0,
        0,
        1,
        0,
        0,
        0,
        0,
        1,
        0,
        -0.12200000000000001,
        0,
        -0.99507999999999996,
        1
      ],
      "name": "Cone.003"
    },
    {
      "mesh": 1,
      "name": "Cone.003"
    },
    {
      "children": [
        10
      ],
      "matrix": [
        1,
        0,
        0,
        0,
        0,
        1,
        0,
        0,
        0,
        0,
        1,
        0,
        0.96791000000000005,
        -0,
        -1.04298,
        1
      ],
      "name": "Cone.004"
    },
    {
      "mesh": 2,
      "name": "Cone.004"
    },
    {
      "children": [
        12
      ],
      "matrix": [
        1,
        0,
        0,
        0,
        0,
        1,
        0,
        0,
        0,
        0,
        1,
        0,
        -0.075560000000000016,
        0,
        0.99067000000000005,
        1
      ],
      "name": "Cone.005"
    },
    {
      "mesh": 3,
      "name": "Cone.005"
    },
    {
      "children": [
        14
      ],
      "matrix": [
        1,
        0,
        0,
        0,
        0,
        1,
        0,
        0,
        0,
        0,
        1,
        0,
        -1.13296,
        -0,
        -0.99195999999999995,
        1
      ],
      "name": "Cone.006"
    },
    {
      "mesh": 4,
      "name": "Cone.006"
    },
    {
      "children": [
        16
      ],
      "matrix": [
        1,
        0,
        0,
        0,
        0,
        1,
        0,
        0,
        0,
        0,
        1,
        0,
        0.76384000000000019,
        -0,
        -0.34954000000000007,
        1
      ],
      "name": "Cone.007"
    },
    {
      "mesh": 5,
      "name": "Cone.007"
    },
    {
      "children": [
        18
      ],
      "matrix": [
        1,
        0,
        0,
        0,
        0,
        1,
        0,
        0,
        0,
        0,
        1,
        0,
        0.64887000000000017,
        -0,
        0.097500000000000031,
        1
      ],
      "name": "Cone.008"
    },
    {
      "mesh": 6,
      "name": "Cone.008"
    },
    {
      "children": [
        20
      ],
      "matrix": [
        1,
        0,
        0,
        0,
        0,
        1,
        0,
        0,
        0,
        0,
        1,
        0,
        0.074960000000000013,
        0,
        -0.071240000000000012,
        1
      ],
      "name": "Cone.009"
    },
    {
      "mesh": 7,
      "name": "Cone.009"
    },
    {
      "children": [
        22
      ],
      "matrix": [
        1,
        0,
        0,
        0,
        0,
        1,
        0,
        0,
        0,
        0,
        1,
        0,
        -0.47878000000000004,
        -0,
        0.30674000000000001,
        1
      ],
      "name": "Cone.010"
    },
    {
      "mesh": 8,
      "name": "Cone.010"
    },
    {
      "children": [
        24
      ],
      "matrix": [
        -0.29086000000000006,
        0.95517000000000007,
        -0.05519000000000001,
        0,
        -0.77110000000000001,
        -0.19988000000000003,
        0.60452000000000006,
        0,
        0.56639000000000006,
        0.21839000000000003,
        0.7946700000000001,
        0,
        2.3187699999999998,
        -5.2308300000000001,
        0.36783000000000005,
        1
      ],
      "name": "Lamp.001"
    },
    {
      "name": "Lamp.001"
    }
  ],
  "scene": 0,
  "scenes": [
    {
      "name": "OSG_Scene",
      "nodes": [
        0
      ]
    }
  ]
}

