<svg xmlns="http://www.w3.org/2000/svg" width="227.99" height="262.39" viewBox="0 0 227.99 262.39"><polygon points="113.4 0.58 227.49 65.48 227.49 196.91 114.97 261.81 0.5 196.26 0.5 65.81 113.4 0.58" fill="none" stroke="#fff"/><polygon points="113.4 23.71 207.27 77.55 207.27 184.52 114 238.33 21.37 183.87 21.37 77.87 113.4 23.71" fill="none" stroke="#fff" stroke-width="17"/><polygon points="40.47 117.78 40.47 88.48 113.4 46 187.24 88.19 187.24 173.44 114.32 214.16 114.32 185.45 161.76 158.5 161.76 104.3 113.86 76.18 92.03 88.77 92.03 202.73 65.67 187.21 65.67 104.3 40.47 117.78" fill="#fff"/></svg>