<svg xmlns="http://www.w3.org/2000/svg" width="1024" height="885" viewBox="0 0 1024 885">
  <defs>
    <style>
      .cls-1 {
        fill: #fff;
        fill-rule: evenodd;
      }
    </style>
  </defs>
  <path class="cls-1" d="M143,653V227l4-4L509,15h4L882,224l3,6V649l-2,7L520,867l-6,1L146,657Zm8-3V231L511,23,876,231l1,419L516,859Zm33-19V252L511,59,845,252l-1,378L516,820Zm601-34L514,756,244,595l-1-309L513,128,786,284ZM276,305L513,166,752,304V578L514,714V618l154-89V354L513,265l-70,40V673l-84-49V354l-83,45V305Z"/>
</svg>
